# xmcd
#
# Track frame offsets:
#	150
#	20382
#	38657
#	50440
#	66697
#	85612
#	98132
#	113652
#	128135
#	145155
#	164110
#	181765
#	194592
#	206952
#	225767
#
# Disc length: 3343
#
# Revision: 3
# Processed by: cddbd v1.5.1PL0 Copyright (c) Steve Scherf et al.
# Submitted via: EasyCDDAExtractor 4.5.0.2
# Normalized: r2:TDELIM( - )
#
DISCID=cd0d0d0f
DTITLE=Various Artist - The Winners (Vol 5) (1)
DYEAR=1997
DGENRE=Country
TTITLE0=Greame Connors - The road less travelled
TTITLE1=The Dead Ringer Band - Already gone
TTITLE2=Cam Fletcher - Kickin' up the dirt
TTITLE3=Wolverines - Howl at the moon
TTITLE4=The Crosby sisters and Russell Morris - Wings of an eagle
TTITLE5=Slim Dusty - Old time country halls
TTITLE6=The Wheel - Saw you runnin'
TTITLE7=Michael Fix - Falling
TTITLE8=Tania Kernaghan - Hobble chains
TTITLE9=John Wibberley - Heart's on the run
TTITLE10=Tina Martyn - Lying in my bed
TTITLE11=Lawrie Minson - Action Jackson
TTITLE12=Shanley Del - Never a good goodbye
TTITLE13=Darren Coggan - The dream remains the same
TTITLE14=The Bushwackers - Ned Kelly's tunes
EXTD=
EXTT0=
EXTT1=
EXTT2=
EXTT3=
EXTT4=
EXTT5=
EXTT6=
EXTT7=
EXTT8=
EXTT9=
EXTT10=
EXTT11=
EXTT12=
EXTT13=
EXTT14=
PLAYORDER=
